<?xml version="1.0" encoding="utf-8"?>
<!-- Generator: Adobe Illustrator 23.0.1, SVG Export Plug-In . SVG Version: 6.00 Build 0)  -->
<svg version="1.1" id="Layer_1" xmlns="http://www.w3.org/2000/svg" xmlns:xlink="http://www.w3.org/1999/xlink" x="0px" y="0px"
	 viewBox="0 0 200 50" style="enable-background:new 0 0 200 50;" xml:space="preserve">
<style type="text/css">
	.st0{fill:#FFFFFF;}
	.st1{fill:#0B88CA;}
</style>
<g>
	<path class="st0" d="M8.2,18.3v22.3h5.5V18.3H8.2z"/>
	<path class="st0" d="M35,40.7V29c0-3.4-1.9-6-5.4-6c-3.4,0-5.7,2.8-5.7,6.2v11.4h-5.5V18.4h4.9l0.4,3c2.3-2.2,4.5-3.3,7.3-3.3
		c5.2,0,9.4,3.9,9.4,10.9v11.7L35,40.7z"/>
	<path class="st0" d="M52.1,12.2v6.3h6.1v4.7H52v9.6c0,2.1,1.2,3.2,2.9,3.2c0.9,0,1.9-0.3,2.7-0.7l1.5,4.7c-1.6,0.6-2.9,0.9-4.6,0.9
		c-4.8,0.2-8-2.6-8-8.1v-9.6h-4.2v-4.7h4.2v-5.7L52.1,12.2z"/>
	<path class="st0" d="M67,31.5c0.4,2.8,2.8,4.7,6.6,4.7c2,0,4.7-0.8,6-2.1l3.5,3.5c-2.3,2.4-6.2,3.6-9.6,3.6
		c-7.7,0-12.2-4.7-12.2-11.9c0-6.8,4.6-11.6,11.8-11.6c7.5,0,12.1,4.6,11.2,13.8H67z M79.1,27c-0.4-2.9-2.6-4.3-5.8-4.3
		c-3,0-5.4,1.4-6.2,4.3H79.1z"/>
	<path class="st0" d="M93.8,18.4l0.4,2.6c1.7-2.8,4-3.2,6.3-3.2s4.5,0.9,5.7,2.1l-2.5,4.8c-1.1-0.9-2.2-1.4-4-1.4
		c-2.9,0-5.6,1.5-5.6,5.6v11.7h-5.5V18.4L93.8,18.4z"/>
	<path class="st0" d="M123.1,40.7V28.8c0-2.9-1.5-5.6-4.6-5.6c-3,0-4.7,2.7-4.7,5.6v11.9h-5.5V18.4h5.1l0.4,2.7
		c1.2-2.3,3.7-3.1,5.9-3.1c2.7,0,5.3,1.1,6.6,4.2c2-3.2,4.6-4.1,7.4-4.1c6.3,0,9.4,3.9,9.4,10.6v12h-5.5v-12c0-2.9-1.2-5.4-4.2-5.4
		s-4.8,2.6-4.8,5.5v11.9H123.1z"/>
	<path class="st0" d="M166.4,18.4h5.3v22.3h-5.2l-0.3-3.3c-1.3,2.6-4.7,3.9-7.2,3.9c-6.6,0-11.5-4-11.5-11.8
		c0-7.7,5.1-11.7,11.6-11.6c3,0,5.8,1.4,7.1,3.6L166.4,18.4z M153,29.5c0,4.2,2.9,6.8,6.6,6.8c8.7,0,8.7-13.5,0-13.5
		C155.9,22.8,153,25.3,153,29.5z"/>
	<path class="st0" d="M195.9,37.8c-2.6,2.5-5.3,3.5-8.6,3.5c-6.5,0-11.8-3.9-11.8-11.8s5.4-11.8,11.8-11.8c3.2,0,5.6,0.9,8,3.3
		l-3.5,3.7c-1.3-1.2-2.9-1.8-4.5-1.8c-3.7,0-6.4,2.7-6.4,6.6c0,4.2,2.9,6.5,6.3,6.5c1.8,0,3.5-0.5,4.9-1.9L195.9,37.8z"/>
</g>
<path class="st1" d="M5.2,8.3l3.9-0.5l1.7-3.6l1.8,3.5l3.9,0.6l-2.8,2.8l0.7,3.8l-3.5-1.8l-3.5,1.8L8,11.1L5.2,8.3z"/>
</svg>
